#define pencil_cursor16e_width 16
#define pencil_cursor16e_height 16
#define pencil_cursor16e_x_hot 0
#define pencil_cursor16e_y_hot 15
static unsigned char pencil_cursor16e_bits[] = {
   0x00, 0x18, 0x00, 0x38, 0x00, 0x78, 0x00, 0xf7, 0x80, 0xcf, 0xc0, 0x1f,
   0xe0, 0x3f, 0xf0, 0x1f, 0xf8, 0x0f, 0xfc, 0x07, 0xfe, 0x03, 0xfc, 0x01,
   0xfd, 0x00, 0x79, 0x00, 0x17, 0x00, 0x07, 0x00 };
